<svg width="58" height="58" viewBox="0 0 58 58" fill="none" xmlns="http://www.w3.org/2000/svg">
<rect width="58" height="58" rx="29" fill="#24272E"/>
<path fill-rule="evenodd" clip-rule="evenodd" d="M18.8684 15.3486C15.9872 16.6355 13.5413 17.7538 13.4331 17.8339C13.3248 17.9139 13.1831 18.0914 13.1181 18.2283C13.0096 18.457 13 19.5188 13 31.2768C13 42.9941 13.0099 44.0972 13.1172 44.3233C13.279 44.6644 13.651 44.9298 14.0264 44.9721C14.3133 45.0044 14.7316 44.8322 19.3618 42.7744L24.386 40.5417L28.8358 42.7662C32.2383 44.4672 33.347 44.9908 33.5467 44.9908C33.7345 44.9908 35.2821 44.3364 39.0643 42.6578C41.9554 41.3746 44.4207 40.2515 44.5429 40.1619C45.0363 39.8 44.9994 40.8877 44.9994 26.7054C44.9994 14.9881 44.9894 13.885 44.8822 13.6589C44.7204 13.3178 44.3484 13.0524 43.973 13.0101C43.6861 12.9778 43.2678 13.1501 38.6376 15.2078L33.6134 17.4406L29.1636 15.216C25.2999 13.2844 24.6738 12.9926 24.4103 13.0001C24.1774 13.0068 22.8909 13.5519 18.8684 15.3486ZM23.2855 27.2296V38.5391L19.4106 40.2606C17.2793 41.2074 15.4795 42.0036 15.4107 42.0298C15.292 42.0751 15.2857 41.5092 15.2857 30.7603V19.443L19.232 17.6852C21.4025 16.7184 23.2025 15.9257 23.2319 15.9237C23.2614 15.9217 23.2855 21.0093 23.2855 27.2296ZM42.7137 27.2296V38.5391L38.8388 40.2606C36.7076 41.2074 34.9076 42.0036 34.8389 42.0298C34.7201 42.0751 34.7139 41.5092 34.7139 30.7603V19.443L38.6602 17.6852C40.8307 16.7184 42.6306 15.9257 42.6601 15.9237C42.6896 15.9217 42.7137 21.0093 42.7137 27.2296ZM32.4282 30.7057V41.9911L28.9997 40.2766L25.5712 38.5621V27.2766V15.9911L28.9997 17.7056L32.4282 19.4202V30.7057Z" fill="#F0E714"/>
</svg>
