<svg width="58" height="58" viewBox="0 0 58 58" fill="none" xmlns="http://www.w3.org/2000/svg">
<rect width="58" height="58" rx="29" fill="#24272E"/>
<path fill-rule="evenodd" clip-rule="evenodd" d="M24.23 13.1169C23.9549 13.176 23.4368 13.3691 23.0785 13.5459C20.7862 14.6777 19.7448 17.5861 20.8037 19.8989C20.9109 20.1331 20.9987 20.3379 20.9987 20.354C20.9987 20.37 20.1937 20.3838 19.2099 20.3845C17.1185 20.3861 16.6679 20.4569 15.695 20.9372C14.0833 21.7327 13 23.4893 13 25.3071C13 26.4333 13.4912 27.7276 14.2356 28.5628L14.6253 29L14.2296 29.4424C12.5185 31.3555 12.6179 34.3231 14.4544 36.1597C15.8966 37.6019 18.0976 38.021 19.8989 37.1963C20.1331 37.0891 20.3379 37.0013 20.354 37.0013C20.37 37.0013 20.3838 37.8062 20.3845 38.7901C20.3861 40.8815 20.4569 41.3321 20.9372 42.305C21.7327 43.9167 23.4893 45 25.3071 45C26.446 45 27.7229 44.517 28.5576 43.7704L29 43.3747L29.4424 43.7704C31.3555 45.4815 34.3231 45.3821 36.1597 43.5456C37.6019 42.1034 38.021 39.9024 37.1963 38.1011C37.0891 37.8669 37.0013 37.6621 37.0013 37.646C37.0013 37.63 37.8062 37.6162 38.7901 37.6155C40.8813 37.6139 41.3462 37.5415 42.3073 37.0677C43.9101 36.2775 45 34.5068 45 32.6929C45 31.5667 44.5088 30.2724 43.7644 29.4372L43.3747 29L43.7704 28.5576C45.4815 26.6445 45.3821 23.6769 43.5456 21.8403C42.1034 20.3981 39.9024 19.979 38.1011 20.8037C37.8669 20.9109 37.6621 20.9987 37.646 20.9987C37.63 20.9987 37.6162 20.1937 37.6155 19.2099C37.6139 17.1185 37.5431 16.6679 37.0628 15.695C36.2629 14.0743 34.5209 13 32.6929 13C31.5667 13 30.2724 13.4912 29.4372 14.2356L29 14.6253L28.5576 14.2296C27.4322 13.223 25.75 12.7905 24.23 13.1169ZM26.3518 15.693C26.8304 15.9247 27.3023 16.3971 27.5422 16.8846C27.7201 17.246 27.7319 17.354 27.7556 18.831L27.7805 20.3946L26.2168 20.3697C24.7398 20.3461 24.6319 20.3342 24.2704 20.1564C22.8999 19.4819 22.4383 17.8243 23.2694 16.5614C23.5569 16.1246 24.0779 15.7244 24.5682 15.5637C25.0382 15.4098 25.895 15.4719 26.3518 15.693ZM33.4446 15.5835C34.0316 15.7731 34.5232 16.1897 34.8411 16.7672L35.1164 17.2673V21.6141V25.961L34.8535 26.4458C34.5612 26.985 34.3207 27.2175 33.7398 27.5219C33.3578 27.7222 33.3034 27.7286 31.7889 27.7553L30.231 27.7827V22.6623C30.231 18.1391 30.2455 17.499 30.3559 17.1738C30.7995 15.8669 32.1575 15.1677 33.4446 15.5835ZM26.0587 22.9694C26.6458 23.1589 27.1373 23.5755 27.4552 24.153L27.7306 24.6531L27.7566 26.2136L27.7828 27.7741L22.525 27.7523L17.2673 27.7306L16.8826 27.5401C14.8843 26.5504 15.0521 23.7082 17.1522 22.9734C17.4494 22.8695 18.0729 22.852 21.5861 22.8488C25.1455 22.8456 25.7238 22.8612 26.0587 22.9694ZM41.1235 23.0788C41.6021 23.3106 42.074 23.783 42.3139 24.2704C42.5844 24.82 42.5844 25.7942 42.3139 26.3437C42.0738 26.8318 41.6035 27.3021 41.1154 27.5422C40.7541 27.72 40.6457 27.7319 39.1748 27.7555L37.6168 27.7803V26.3636C37.6168 25.3891 37.6496 24.8381 37.7217 24.5983C37.943 23.863 38.6023 23.1913 39.3399 22.9496C39.8099 22.7956 40.6667 22.8577 41.1235 23.0788ZM20.3696 31.7889C20.3461 33.2599 20.3342 33.3683 20.1564 33.7296C19.9162 34.2176 19.4459 34.688 18.9578 34.9281C18.6429 35.0831 18.4595 35.1164 17.9212 35.1164C17.3829 35.1164 17.1996 35.0831 16.8846 34.9281C15.514 34.2537 15.0524 32.5961 15.8836 31.3332C16.1732 30.893 16.6981 30.4916 17.1823 30.3401C17.3895 30.2752 17.996 30.2395 18.9463 30.2361L20.3945 30.231L20.3696 31.7889ZM27.7523 35.4819L27.7306 40.7327L27.4677 41.2175C27.1748 41.7578 26.9331 41.9909 26.3539 42.2919C26.0183 42.4663 25.8657 42.4959 25.3071 42.4953C24.773 42.4946 24.5826 42.4603 24.2684 42.3079C23.7805 42.0712 23.3183 41.6104 23.0741 41.1174L22.8836 40.7327L22.8618 36.5397C22.8426 32.8482 22.8549 32.3012 22.9643 31.9667C23.2164 31.1959 23.7737 30.6267 24.5381 30.3593C24.8034 30.2664 25.2203 30.2374 26.329 30.2347L27.7741 30.231L27.7523 35.4819ZM40.8305 30.3552C41.4177 30.5449 41.909 30.9614 42.2267 31.5389C42.4825 32.0039 42.5016 32.0848 42.4989 32.6929C42.4965 33.2472 42.4649 33.4067 42.2919 33.7398C41.9909 34.319 41.7578 34.5606 41.2175 34.8535L40.7327 35.1164H36.3859H32.039L31.6543 34.9259C31.1634 34.6828 30.7025 34.2216 30.4606 33.7316C30.2808 33.3675 30.2692 33.2635 30.2451 31.7889L30.2197 30.231H35.3327C39.8289 30.231 40.4922 30.246 40.8305 30.3552ZM33.7296 37.8436C34.2176 38.0838 34.688 38.5541 34.9281 39.0422C35.0831 39.3571 35.1164 39.5405 35.1164 40.0788C35.1164 40.8498 34.9365 41.3014 34.426 41.8118C33.9155 42.3223 33.4639 42.5023 32.6929 42.5023C32.1546 42.5023 31.9713 42.469 31.6563 42.3139C31.1682 42.0738 30.6979 41.6035 30.4578 41.1154C30.2799 40.754 30.2681 40.646 30.2444 39.169L30.2195 37.6054L31.7832 37.6303C33.2602 37.6539 33.3681 37.6658 33.7296 37.8436Z" fill="#F0E714"/>
</svg>
