<svg width="58" height="58" viewBox="0 0 58 58" fill="none" xmlns="http://www.w3.org/2000/svg">
<rect width="58" height="58" rx="29" fill="#24272E"/>
<path fill-rule="evenodd" clip-rule="evenodd" d="M38.4676 13.0296C38.4042 13.0567 35.9025 14.44 32.9083 16.1038L27.4644 19.1288H21.8698C17.0942 19.1288 16.209 19.1461 15.8231 19.2466C14.4967 19.5921 13.475 20.6171 13.1277 21.9506C12.9556 22.6109 12.9583 30.422 13.1307 31.0839C13.4762 32.4103 14.5012 33.432 15.8347 33.7793C16.1162 33.8527 16.6372 33.8941 17.2784 33.8941H18.2816L20.0327 39.1495C21.8909 44.726 21.8715 44.6793 22.4192 44.8862C22.7648 45.0168 27.9461 44.9963 28.2649 44.8631C28.5907 44.7269 28.9127 44.34 28.9746 44.0101C29.0218 43.7587 27.8693 36.4903 27.6914 35.9166C27.5274 35.3881 26.8794 35.0452 26.2631 35.1608C25.8874 35.2313 25.4246 35.6919 25.3545 36.0652C25.3183 36.2582 25.4591 37.2849 25.8096 39.3848C26.0887 41.0568 26.317 42.4434 26.317 42.466C26.317 42.4886 25.7372 42.5071 25.0285 42.5071H23.74L22.305 38.2006L20.87 33.8941H24.1672H27.4644L32.9468 36.9487C38.3469 39.9575 38.4357 40.0034 38.8657 40.0056C39.3378 40.008 39.5858 39.8798 39.8855 39.4784C40.0392 39.2728 40.0448 39.1615 40.0666 35.9072L40.0891 32.5483L40.7587 32.3392C42.8818 31.6764 44.4579 29.8709 44.8956 27.6006C45.4667 24.6372 43.6404 21.5834 40.7587 20.6837L40.0891 20.4746L40.0666 17.1157C40.0448 13.8614 40.0392 13.7501 39.8855 13.5445C39.6221 13.1918 39.3485 13.0337 38.9539 13.0063C38.7499 12.9921 38.531 13.0027 38.4676 13.0296ZM37.6217 26.5017V36.7199L33.3171 34.3278L29.0124 31.9358L28.9913 27.7681C28.9706 23.6955 28.9666 23.5955 28.8116 23.388C28.5103 22.9845 28.2645 22.8586 27.7782 22.8586C27.2919 22.8586 27.0461 22.9845 26.7448 23.388C26.5901 23.595 26.5857 23.6981 26.5649 27.5183L26.5437 31.4364L21.3988 31.4156C16.339 31.3951 16.2505 31.3921 16.0417 31.2362C15.9249 31.149 15.758 30.9821 15.6708 30.8653C15.5153 30.657 15.5123 30.5744 15.5123 26.5115C15.5123 22.4486 15.5153 22.366 15.6708 22.1576C15.758 22.0408 15.9249 21.8739 16.0417 21.7867C16.2513 21.6302 16.3319 21.6279 22.1892 21.6063L28.1242 21.5844L32.8537 18.9428C35.455 17.49 37.5919 16.2972 37.6025 16.2924C37.613 16.2875 37.6217 20.8817 37.6217 26.5017ZM40.5616 23.252C40.78 23.3627 41.1554 23.6409 41.3959 23.8703C42.9109 25.3153 42.9109 27.7076 41.3959 29.1526C41.0374 29.4945 40.296 29.9721 40.1235 29.9721C40.101 29.9721 40.0826 28.4148 40.0826 26.5115C40.0826 24.6081 40.101 23.0509 40.1235 23.0509C40.1462 23.0509 40.3433 23.1414 40.5616 23.252Z" fill="#F0E714"/>
</svg>
