<svg width="58" height="58" viewBox="0 0 58 58" fill="none" xmlns="http://www.w3.org/2000/svg">
<rect width="58" height="58" rx="29" fill="#24272E"/>
<path fill-rule="evenodd" clip-rule="evenodd" d="M34.8405 12.1119C34.0954 12.4364 33.8609 13.4512 34.3866 14.0761C34.752 14.5103 34.9358 14.5447 36.8894 14.5447H38.6612L35.1037 18.1023L31.5461 21.6599L29.2987 19.4203C27.3597 17.488 27.0105 17.1733 26.7531 17.1262C26.3257 17.048 25.9336 17.1434 25.6382 17.3975C25.497 17.5189 23.0859 19.6257 20.2803 22.0793C14.7692 26.899 14.9324 26.7321 15.0286 27.4494C15.136 28.2507 16.021 28.7568 16.7557 28.4371C16.9075 28.3711 19.1409 26.4695 21.7188 24.2113L26.406 20.1055L28.6769 22.3688C30.6373 24.3226 30.9887 24.6395 31.2461 24.6866C31.9841 24.8215 31.7907 24.9826 36.2915 20.4887L40.4424 16.3443L40.4664 18.2221C40.4889 19.9741 40.5014 20.1147 40.6544 20.3194C40.9662 20.7365 41.2202 20.8666 41.723 20.8666C42.2259 20.8666 42.48 20.7365 42.7917 20.3192C42.9508 20.1062 42.9563 19.9936 42.9778 16.5024L43 12.9051L42.8169 12.6334C42.7162 12.4839 42.513 12.2802 42.3654 12.1808L42.0971 12L38.5901 12.0031C35.8544 12.0056 35.0297 12.0294 34.8405 12.1119ZM36.1128 24.8338C35.792 24.9755 35.4584 25.3817 35.4013 25.6999C35.376 25.8408 35.3656 30.0776 35.3782 35.115C35.4009 44.2237 35.402 44.2753 35.5651 44.4936C35.6552 44.6144 35.8278 44.787 35.9486 44.8772C36.1613 45.036 36.2622 45.0411 39.1784 45.0411C42.0946 45.0411 42.1954 45.036 42.4081 44.8772C42.5289 44.787 42.7015 44.6144 42.7917 44.4936C42.9551 44.2747 42.9556 44.2436 42.9556 34.9022C42.9556 25.5607 42.9551 25.5296 42.7917 25.3107C42.7015 25.1899 42.5289 25.0173 42.4082 24.9272C42.197 24.7694 42.0789 24.7625 39.272 24.745C36.9683 24.7305 36.3044 24.7492 36.1128 24.8338ZM25.9341 27.3785C25.6134 27.5201 25.2796 27.9263 25.2224 28.2445C25.1971 28.3855 25.1867 32.0497 25.1994 36.3874C25.2222 44.2109 25.2237 44.2758 25.3863 44.4936C25.4765 44.6144 25.6491 44.787 25.7699 44.8772C25.9826 45.036 26.0834 45.0411 28.9996 45.0411C31.9158 45.0411 32.0167 45.036 32.2294 44.8772C32.3502 44.787 32.5227 44.6144 32.6129 44.4936C32.776 44.2752 32.7769 44.2309 32.7769 36.1745C32.7769 28.1181 32.776 28.0738 32.6129 27.8554C32.5227 27.7346 32.3502 27.562 32.2295 27.4718C32.0183 27.3141 31.9002 27.3071 29.0933 27.2897C26.7896 27.2752 26.1256 27.2939 25.9341 27.3785ZM40.4507 34.9022V42.5362H39.1784H37.906V34.9022V27.2681H39.1784H40.4507V34.9022ZM30.272 36.1745V42.5362H28.9996H27.7273V36.1745V29.8128H28.9996H30.272V36.1745ZM15.7553 31.1955C15.4347 31.3371 15.101 31.7432 15.0436 32.0616C15.0181 32.2025 15.0078 35.0079 15.0205 38.2959C15.0433 44.1915 15.0459 44.2771 15.2076 44.4936C15.2978 44.6144 15.4703 44.787 15.5911 44.8772C15.8039 45.036 15.9047 45.0411 18.8209 45.0411C21.7371 45.0411 21.8379 45.036 22.0507 44.8772C22.1714 44.787 22.344 44.6144 22.4342 44.4936C22.5965 44.2762 22.5982 44.2118 22.5982 38.083C22.5982 31.9542 22.5965 31.8898 22.4342 31.6724C22.344 31.5516 22.1714 31.379 22.0507 31.2889C21.8395 31.1311 21.7214 31.1242 18.9146 31.1067C16.6108 31.0922 15.9469 31.1109 15.7553 31.1955ZM20.0932 38.083V42.5362H18.8209H17.5486V38.083V33.6298H18.8209H20.0932V38.083Z" fill="#F0E714"/>
</svg>
