<svg width="68" height="68" viewBox="0 0 68 68" fill="none" xmlns="http://www.w3.org/2000/svg">
<circle cx="34" cy="34" r="34" fill="#24272E"/>
<path d="M34.0003 20.6665C26.6483 20.6665 20.667 26.6478 20.667 33.9998V39.5238C20.667 40.8892 21.863 41.9998 23.3337 41.9998H24.667C25.0206 41.9998 25.3598 41.8594 25.6098 41.6093C25.8598 41.3593 26.0003 41.0201 26.0003 40.6665V33.8092C26.0003 33.4555 25.8598 33.1164 25.6098 32.8664C25.3598 32.6163 25.0206 32.4758 24.667 32.4758H23.4563C24.1977 27.3158 28.6377 23.3332 34.0003 23.3332C39.363 23.3332 43.803 27.3158 44.5443 32.4758H43.3337C42.98 32.4758 42.6409 32.6163 42.3908 32.8664C42.1408 33.1164 42.0003 33.4555 42.0003 33.8092V41.9998C42.0003 43.4705 40.8043 44.6665 39.3337 44.6665H36.667V43.3332H31.3337V47.3332H39.3337C42.275 47.3332 44.667 44.9412 44.667 41.9998C46.1377 41.9998 47.3337 40.8892 47.3337 39.5238V33.9998C47.3337 26.6478 41.3523 20.6665 34.0003 20.6665Z" fill="#F0E714"/>
</svg>
