<svg width="58" height="58" viewBox="0 0 58 58" fill="none" xmlns="http://www.w3.org/2000/svg">
<rect width="58" height="58" rx="29" fill="#24272E"/>
<path fill-rule="evenodd" clip-rule="evenodd" d="M23.0059 14.1139C22.7352 14.1727 22.2158 14.3677 21.8518 14.5475C20.2368 15.3446 19.1536 17.0996 19.1536 18.9191C19.1536 21.6788 21.5354 23.9621 24.2724 23.8262L24.893 23.7954L25.4065 24.9436L25.92 26.0918L25.4282 26.623C24.1868 27.9639 23.7569 29.9136 24.3431 31.5444C24.4557 31.8578 24.554 32.1502 24.5615 32.194C24.5691 32.2378 23.7015 33.0538 22.6337 34.0072L20.6922 35.7407L20.0947 35.4456C16.4264 33.6337 12.2627 36.8743 13.1114 40.8806C13.4085 42.2833 14.4176 43.5872 15.6935 44.2169C17.1775 44.9495 18.6691 44.9511 20.1485 44.2218C22.2828 43.1697 23.3715 40.5142 22.5759 38.3009C22.4633 37.9875 22.365 37.6944 22.3575 37.6498C22.3499 37.6051 23.2206 36.7884 24.2922 35.8349L26.2406 34.1012L26.834 34.3971C27.8415 34.8994 28.9344 35.0397 30.0311 34.8073C30.5814 34.6907 31.3782 34.3545 31.7766 34.0709C31.9276 33.9634 32.037 33.9323 32.0987 33.9793C32.8973 34.5885 35.3725 36.5082 35.4477 36.5768C35.5305 36.6523 35.5188 36.7572 35.3827 37.1614C35.2849 37.4516 35.2008 37.9384 35.1779 38.3465C34.9972 41.5712 37.9418 44.089 41.1172 43.4246C43.3254 42.9626 45 40.8886 45 38.6158C45 36.8017 43.9102 35.0311 42.3072 34.2407C40.7442 33.47 39.1009 33.5216 37.5864 34.389C37.2661 34.5724 37.0223 34.667 36.9709 34.6281C36.4292 34.2185 33.706 32.1067 33.63 32.0375C33.5472 31.9619 33.5586 31.8578 33.6937 31.4567C33.7843 31.1879 33.8777 30.6694 33.9013 30.3045L33.9443 29.6409L34.9408 29.312L35.9372 28.9832L36.0567 29.1638C36.1224 29.2632 36.4084 29.5719 36.6923 29.8499C38.5873 31.7059 41.6497 31.6723 43.541 29.7749C45.4822 27.8275 45.4822 24.7833 43.541 22.8358C41.6125 20.901 38.5507 20.903 36.6135 22.8403C35.7073 23.7465 35.1595 25.0204 35.1557 26.2306L35.1544 26.656L34.1475 26.9884L33.1405 27.3207L33.021 27.14C32.9553 27.0407 32.6651 26.7278 32.376 26.4448C31.4403 25.5287 30.1134 25.0262 28.8018 25.0914L28.1812 25.1222L27.6677 23.974L27.1542 22.8258L27.646 22.2946C29.4779 20.316 29.4308 17.349 27.5375 15.4496C26.3451 14.2533 24.6569 13.7558 23.0059 14.1139ZM24.8267 16.5813C25.414 16.771 25.9053 17.1875 26.223 17.765C26.4782 18.2289 26.498 18.3125 26.4969 18.9191C26.4959 19.5152 26.4726 19.616 26.2343 20.0579C25.9432 20.5979 25.7018 20.831 25.1219 21.1323C24.7863 21.3067 24.6337 21.3363 24.075 21.3357C23.5409 21.335 23.3506 21.3007 23.0363 21.1483C22.2381 20.7611 21.703 19.9797 21.6313 19.0964C21.4918 17.3779 23.1797 16.0493 24.8267 16.5813ZM40.8302 23.9675C41.4175 24.1572 41.9089 24.5737 42.2265 25.1513C42.4817 25.6151 42.5015 25.6988 42.5005 26.3054C42.4994 26.9015 42.4761 27.0023 42.2379 27.4441C41.9463 27.9846 41.7043 28.2182 41.1255 28.5175C40.8002 28.6856 40.6267 28.7213 40.117 28.7248C38.9523 28.7327 38.1115 28.1365 37.7438 27.0418C37.1184 25.18 38.9464 23.3591 40.8302 23.9675ZM29.7509 27.6607C30.3716 27.8611 30.844 28.2712 31.1535 28.8782C31.3974 29.3566 31.4224 29.4651 31.4188 30.0294C31.4156 30.5263 31.3785 30.7226 31.2354 30.9987C30.9357 31.5774 30.6449 31.8844 30.1376 32.158C29.6935 32.3975 29.5987 32.419 28.9992 32.4167C28.2119 32.4138 27.7574 32.2279 27.2549 31.7035C26.8309 31.261 26.6033 30.765 26.5557 30.1801C26.4162 28.462 28.1061 27.1295 29.7509 27.6607ZM40.8302 36.2779C41.4175 36.4676 41.9089 36.8841 42.2265 37.4617C42.4817 37.9255 42.5015 38.0092 42.5005 38.6158C42.4994 39.2119 42.4761 39.3127 42.2379 39.7545C41.9467 40.2945 41.7053 40.5276 41.1255 40.8289C40.7898 41.0034 40.6372 41.033 40.0785 41.0324C39.5444 41.0317 39.3541 40.9974 39.0398 40.8449C37.9445 40.3136 37.3666 39.0185 37.7294 37.9082C38.1642 36.5775 39.5318 35.8585 40.8302 36.2779ZM18.9546 37.6199C19.4206 37.8413 19.868 38.2902 20.1358 38.8055C20.3062 39.1332 20.3374 39.2934 20.3389 39.8468C20.3404 40.4457 20.3185 40.5416 20.0791 40.9856C19.788 41.5255 19.5466 41.7587 18.9667 42.06C18.6311 42.2344 18.4785 42.264 17.9198 42.2634C17.3857 42.2627 17.1954 42.2284 16.8811 42.076C14.8812 41.1058 15.0485 38.2723 17.1508 37.5084C17.6348 37.3325 18.4564 37.3833 18.9546 37.6199Z" fill="#F0E714"/>
</svg>
