<svg width="58" height="58" viewBox="0 0 58 58" fill="none" xmlns="http://www.w3.org/2000/svg">
<rect width="58" height="58" rx="29" fill="#24272E"/>
<path fill-rule="evenodd" clip-rule="evenodd" d="M17.9116 18.1055C17.6866 18.1601 17.3339 18.2901 17.1279 18.3946C16.6483 18.6376 15.9287 19.3564 15.6864 19.8345C15.2825 20.6317 15.287 20.5436 15.2859 27.5424L15.2848 33.9829L14.5111 34.0071C13.8001 34.0293 13.7169 34.0468 13.4853 34.2237C13.038 34.5653 12.9988 34.7348 13 36.3279C13.0012 37.88 13.0741 38.3688 13.4006 39.0131C13.6422 39.49 14.362 40.2098 14.839 40.4515C15.667 40.8711 14.9548 40.8509 28.9724 40.852C37.4295 40.8527 41.9702 40.8281 42.2229 40.7802C42.8603 40.6593 43.466 40.3298 43.9614 39.8344C44.8231 38.9727 44.9985 38.3807 45 36.3279C45.0012 34.7348 44.962 34.5653 44.5147 34.2237C44.2831 34.0468 44.1999 34.0293 43.4889 34.0071L42.7152 33.9829L42.7141 27.5424C42.713 20.5698 42.716 20.6286 42.3247 19.8565C42.2272 19.6641 41.9665 19.3113 41.7452 19.0723C41.2907 18.5813 40.5781 18.1846 39.9374 18.0658C39.6913 18.0202 35.7272 17.9966 28.9367 18.0004C20.139 18.0053 18.2507 18.0233 17.9116 18.1055ZM39.9018 20.4633C40.0103 20.5443 40.1653 20.6994 40.2463 20.8079C40.3922 21.0032 40.3938 21.0665 40.4126 27.5003L40.4315 33.9955H29.0011H17.5707V27.6069C17.5707 23.2551 17.595 21.1542 17.6469 21.0172C17.7482 20.7497 17.9864 20.4981 18.2493 20.3808C18.4257 20.3021 20.3419 20.2879 29.0841 20.3006C39.6873 20.316 39.7048 20.3163 39.9018 20.4633ZM18.7136 27.1379V32.8526H29H39.2864V27.1379V21.4233H29H18.7136V27.1379ZM37.0005 27.1379V30.5667H29H20.9995V27.1379V23.7091H29H37.0005V27.1379ZM24.4556 36.5075C24.5172 36.8155 24.7975 37.1656 25.0958 37.3071C25.3148 37.411 25.7577 37.4243 29 37.4243C32.2423 37.4243 32.6852 37.411 32.9042 37.3071C33.2025 37.1656 33.4828 36.8155 33.5444 36.5075L33.5896 36.2814H38.1587H42.7278L42.7036 37.0621C42.6775 37.9058 42.6155 38.0648 42.1876 38.3842L41.9904 38.5315H29H16.0097L15.8124 38.3842C15.3845 38.0648 15.3225 37.9058 15.2964 37.0621L15.2722 36.2814H19.8413H24.4104L24.4556 36.5075Z" fill="#F0E714"/>
</svg>
