<svg width="170" height="170" viewBox="0 0 170 170" fill="none" xmlns="http://www.w3.org/2000/svg">
<mask id="mask0_0_1848" style="mask-type:alpha" maskUnits="userSpaceOnUse" x="0" y="0" width="170" height="170">
<circle cx="85" cy="85" r="85" fill="#FEFEFE"/>
</mask>
<g mask="url(#mask0_0_1848)">
<circle cx="3.86837" cy="6.26278" r="2.69442" fill="#605F5F"/>
<circle cx="3.86837" cy="21.2315" r="2.69442" fill="#605F5F"/>
<circle cx="3.86825" cy="35.6016" r="2.69442" fill="#605F5F"/>
<circle cx="3.86825" cy="49.9727" r="2.69442" fill="#605F5F"/>
<circle cx="3.86837" cy="64.9415" r="2.69442" fill="#605F5F"/>
<circle cx="3.86825" cy="79.3116" r="2.69442" fill="#605F5F"/>
<circle cx="3.86837" cy="93.682" r="2.69442" fill="#605F5F"/>
<circle cx="3.86837" cy="108.651" r="2.69442" fill="#605F5F"/>
<circle cx="3.86837" cy="123.022" r="2.69442" fill="#605F5F"/>
<circle cx="3.86825" cy="137.392" r="2.69442" fill="#605F5F"/>
<circle cx="3.86837" cy="152.361" r="2.69442" fill="#605F5F"/>
<circle cx="3.86837" cy="166.731" r="2.69442" fill="#605F5F"/>
<circle cx="14.6457" cy="6.26278" r="2.69442" fill="#605F5F"/>
<circle cx="14.6457" cy="21.2315" r="2.69442" fill="#605F5F"/>
<circle cx="14.6456" cy="35.6016" r="2.69442" fill="#605F5F"/>
<circle cx="14.6456" cy="49.9727" r="2.69442" fill="#605F5F"/>
<circle cx="14.6457" cy="64.9415" r="2.69442" fill="#605F5F"/>
<circle cx="14.6456" cy="79.3116" r="2.69442" fill="#605F5F"/>
<circle cx="14.6457" cy="93.682" r="2.69442" fill="#605F5F"/>
<circle cx="14.6457" cy="108.651" r="2.69442" fill="#605F5F"/>
<circle cx="14.6457" cy="123.022" r="2.69442" fill="#605F5F"/>
<circle cx="14.6456" cy="137.392" r="2.69442" fill="#605F5F"/>
<circle cx="14.6457" cy="152.361" r="2.69442" fill="#605F5F"/>
<circle cx="14.6457" cy="166.731" r="2.69442" fill="#605F5F"/>
<circle cx="24.8233" cy="6.26278" r="2.69442" fill="#605F5F"/>
<circle cx="24.8233" cy="21.2315" r="2.69442" fill="#605F5F"/>
<circle cx="24.8233" cy="35.6026" r="2.69442" fill="#605F5F"/>
<circle cx="24.8233" cy="49.9718" r="2.69442" fill="#605F5F"/>
<circle cx="24.8233" cy="64.9415" r="2.69442" fill="#605F5F"/>
<circle cx="24.8233" cy="79.3116" r="2.69442" fill="#605F5F"/>
<circle cx="24.8233" cy="93.6817" r="2.69442" fill="#605F5F"/>
<circle cx="24.8233" cy="108.651" r="2.69442" fill="#605F5F"/>
<circle cx="24.8233" cy="123.022" r="2.69442" fill="#605F5F"/>
<circle cx="24.8233" cy="137.392" r="2.69442" fill="#605F5F"/>
<circle cx="24.8233" cy="152.361" r="2.69442" fill="#605F5F"/>
<circle cx="24.8233" cy="166.731" r="2.69442" fill="#605F5F"/>
<circle cx="35.6026" cy="6.26278" r="2.69442" fill="#605F5F"/>
<circle cx="35.6026" cy="21.2315" r="2.69442" fill="#605F5F"/>
<circle cx="35.6026" cy="35.6026" r="2.69442" fill="#605F5F"/>
<circle cx="35.6026" cy="49.9718" r="2.69442" fill="#605F5F"/>
<circle cx="35.6026" cy="64.9415" r="2.69442" fill="#605F5F"/>
<circle cx="35.6026" cy="79.3116" r="2.69442" fill="#605F5F"/>
<circle cx="35.6026" cy="93.6817" r="2.69442" fill="#605F5F"/>
<circle cx="35.6026" cy="108.651" r="2.69442" fill="#605F5F"/>
<circle cx="35.6026" cy="123.022" r="2.69442" fill="#605F5F"/>
<circle cx="35.6026" cy="137.392" r="2.69442" fill="#605F5F"/>
<circle cx="35.6026" cy="152.361" r="2.69442" fill="#605F5F"/>
<circle cx="35.6026" cy="166.731" r="2.69442" fill="#605F5F"/>
<circle cx="45.7804" cy="6.26278" r="2.69442" fill="#605F5F"/>
<circle cx="45.7804" cy="21.2315" r="2.69442" fill="#605F5F"/>
<circle cx="45.7804" cy="35.6026" r="2.69442" fill="#605F5F"/>
<circle cx="45.7804" cy="49.9718" r="2.69442" fill="#605F5F"/>
<circle cx="45.7804" cy="64.9415" r="2.69442" fill="#605F5F"/>
<circle cx="45.7804" cy="79.3116" r="2.69442" fill="#605F5F"/>
<circle cx="45.7804" cy="93.6817" r="2.69442" fill="#605F5F"/>
<circle cx="45.7804" cy="108.651" r="2.69442" fill="#605F5F"/>
<circle cx="45.7804" cy="123.022" r="2.69442" fill="#605F5F"/>
<circle cx="45.7804" cy="137.392" r="2.69442" fill="#605F5F"/>
<circle cx="45.7804" cy="152.361" r="2.69442" fill="#605F5F"/>
<circle cx="45.7804" cy="166.731" r="2.69442" fill="#605F5F"/>
<circle cx="56.5597" cy="6.26278" r="2.69442" fill="#605F5F"/>
<circle cx="56.5597" cy="21.2315" r="2.69442" fill="#605F5F"/>
<circle cx="56.5597" cy="35.6026" r="2.69442" fill="#605F5F"/>
<circle cx="56.5597" cy="49.9718" r="2.69442" fill="#605F5F"/>
<circle cx="56.5597" cy="64.9415" r="2.69442" fill="#605F5F"/>
<circle cx="56.5597" cy="79.3116" r="2.69442" fill="#605F5F"/>
<circle cx="56.5597" cy="93.6817" r="2.69442" fill="#605F5F"/>
<circle cx="56.5597" cy="108.651" r="2.69442" fill="#605F5F"/>
<circle cx="56.5597" cy="123.022" r="2.69442" fill="#605F5F"/>
<circle cx="56.5597" cy="137.392" r="2.69442" fill="#605F5F"/>
<circle cx="56.5597" cy="152.361" r="2.69442" fill="#605F5F"/>
<circle cx="56.5597" cy="166.731" r="2.69442" fill="#605F5F"/>
<circle cx="66.7372" cy="6.26278" r="2.69442" fill="#605F5F"/>
<circle cx="66.7372" cy="21.2315" r="2.69442" fill="#605F5F"/>
<circle cx="66.7374" cy="35.6016" r="2.69442" fill="#605F5F"/>
<circle cx="66.7374" cy="49.9727" r="2.69442" fill="#605F5F"/>
<circle cx="66.7372" cy="64.9415" r="2.69442" fill="#605F5F"/>
<circle cx="66.7374" cy="79.3116" r="2.69442" fill="#605F5F"/>
<circle cx="66.7372" cy="93.682" r="2.69442" fill="#605F5F"/>
<circle cx="66.7372" cy="108.651" r="2.69442" fill="#605F5F"/>
<circle cx="66.7372" cy="123.022" r="2.69442" fill="#605F5F"/>
<circle cx="66.7374" cy="137.392" r="2.69442" fill="#605F5F"/>
<circle cx="66.7372" cy="152.361" r="2.69442" fill="#605F5F"/>
<circle cx="66.7372" cy="166.731" r="2.69442" fill="#605F5F"/>
<circle cx="77.5155" cy="6.26278" r="2.69442" fill="#605F5F"/>
<circle cx="77.5155" cy="21.2315" r="2.69442" fill="#605F5F"/>
<circle cx="77.5157" cy="35.6016" r="2.69442" fill="#605F5F"/>
<circle cx="77.5157" cy="49.9727" r="2.69442" fill="#605F5F"/>
<circle cx="77.5155" cy="64.9415" r="2.69442" fill="#605F5F"/>
<circle cx="77.5157" cy="79.3116" r="2.69442" fill="#605F5F"/>
<circle cx="77.5155" cy="93.682" r="2.69442" fill="#605F5F"/>
<circle cx="77.5155" cy="108.651" r="2.69442" fill="#605F5F"/>
<circle cx="77.5155" cy="123.022" r="2.69442" fill="#605F5F"/>
<circle cx="77.5157" cy="137.392" r="2.69442" fill="#605F5F"/>
<circle cx="77.5155" cy="152.361" r="2.69442" fill="#605F5F"/>
<circle cx="77.5155" cy="166.731" r="2.69442" fill="#605F5F"/>
<circle cx="87.6944" cy="6.26278" r="2.69442" fill="#605F5F"/>
<circle cx="87.6944" cy="21.2315" r="2.69442" fill="#605F5F"/>
<circle cx="87.6944" cy="35.6016" r="2.69442" fill="#605F5F"/>
<circle cx="87.6944" cy="49.9727" r="2.69442" fill="#605F5F"/>
<circle cx="87.6944" cy="64.9415" r="2.69442" fill="#605F5F"/>
<circle cx="87.6944" cy="79.3116" r="2.69442" fill="#605F5F"/>
<circle cx="87.6944" cy="93.682" r="2.69442" fill="#605F5F"/>
<circle cx="87.6944" cy="108.651" r="2.69442" fill="#605F5F"/>
<circle cx="87.6944" cy="123.022" r="2.69442" fill="#605F5F"/>
<circle cx="87.6944" cy="137.392" r="2.69442" fill="#605F5F"/>
<circle cx="87.6944" cy="152.361" r="2.69442" fill="#605F5F"/>
<circle cx="87.6944" cy="166.731" r="2.69442" fill="#605F5F"/>
<circle cx="98.4718" cy="6.26278" r="2.69442" fill="#605F5F"/>
<circle cx="98.4718" cy="21.2315" r="2.69442" fill="#605F5F"/>
<circle cx="98.4718" cy="35.6016" r="2.69442" fill="#605F5F"/>
<circle cx="98.4718" cy="49.9727" r="2.69442" fill="#605F5F"/>
<circle cx="98.4718" cy="64.9415" r="2.69442" fill="#605F5F"/>
<circle cx="98.4718" cy="79.3116" r="2.69442" fill="#605F5F"/>
<circle cx="98.4718" cy="93.682" r="2.69442" fill="#605F5F"/>
<circle cx="98.4718" cy="108.651" r="2.69442" fill="#605F5F"/>
<circle cx="98.4718" cy="123.022" r="2.69442" fill="#605F5F"/>
<circle cx="98.4718" cy="137.392" r="2.69442" fill="#605F5F"/>
<circle cx="98.4718" cy="152.361" r="2.69442" fill="#605F5F"/>
<circle cx="98.4718" cy="166.731" r="2.69442" fill="#605F5F"/>
<circle cx="108.652" cy="6.26278" r="2.69442" fill="#605F5F"/>
<circle cx="108.652" cy="21.2315" r="2.69442" fill="#605F5F"/>
<circle cx="108.651" cy="35.6016" r="2.69442" fill="#605F5F"/>
<circle cx="108.651" cy="49.9727" r="2.69442" fill="#605F5F"/>
<circle cx="108.652" cy="64.9415" r="2.69442" fill="#605F5F"/>
<circle cx="108.651" cy="79.3116" r="2.69442" fill="#605F5F"/>
<circle cx="108.652" cy="93.682" r="2.69442" fill="#605F5F"/>
<circle cx="108.652" cy="108.651" r="2.69442" fill="#605F5F"/>
<circle cx="108.652" cy="123.022" r="2.69442" fill="#605F5F"/>
<circle cx="108.651" cy="137.392" r="2.69442" fill="#605F5F"/>
<circle cx="108.652" cy="152.361" r="2.69442" fill="#605F5F"/>
<circle cx="108.652" cy="166.731" r="2.69442" fill="#605F5F"/>
<circle cx="119.429" cy="6.26278" r="2.69442" fill="#605F5F"/>
<circle cx="119.429" cy="21.2315" r="2.69442" fill="#605F5F"/>
<circle cx="119.429" cy="35.6016" r="2.69442" fill="#605F5F"/>
<circle cx="119.429" cy="49.9727" r="2.69442" fill="#605F5F"/>
<circle cx="119.429" cy="64.9415" r="2.69442" fill="#605F5F"/>
<circle cx="119.429" cy="79.3116" r="2.69442" fill="#605F5F"/>
<circle cx="119.429" cy="93.682" r="2.69442" fill="#605F5F"/>
<circle cx="119.429" cy="108.651" r="2.69442" fill="#605F5F"/>
<circle cx="119.429" cy="123.022" r="2.69442" fill="#605F5F"/>
<circle cx="119.429" cy="137.392" r="2.69442" fill="#605F5F"/>
<circle cx="119.429" cy="152.361" r="2.69442" fill="#605F5F"/>
<circle cx="119.429" cy="166.731" r="2.69442" fill="#605F5F"/>
<circle cx="129.608" cy="6.26278" r="2.69442" fill="#605F5F"/>
<circle cx="129.608" cy="21.2315" r="2.69442" fill="#605F5F"/>
<circle cx="129.608" cy="35.6026" r="2.69442" fill="#605F5F"/>
<circle cx="129.608" cy="49.9718" r="2.69442" fill="#605F5F"/>
<circle cx="129.608" cy="64.9415" r="2.69442" fill="#605F5F"/>
<circle cx="129.608" cy="79.3116" r="2.69442" fill="#605F5F"/>
<circle cx="129.608" cy="93.6817" r="2.69442" fill="#605F5F"/>
<circle cx="129.608" cy="108.651" r="2.69442" fill="#605F5F"/>
<circle cx="129.608" cy="123.022" r="2.69442" fill="#605F5F"/>
<circle cx="129.608" cy="137.392" r="2.69442" fill="#605F5F"/>
<circle cx="129.608" cy="152.361" r="2.69442" fill="#605F5F"/>
<circle cx="129.608" cy="166.731" r="2.69442" fill="#605F5F"/>
<circle cx="140.385" cy="6.26278" r="2.69442" fill="#605F5F"/>
<circle cx="140.385" cy="21.2315" r="2.69442" fill="#605F5F"/>
<circle cx="140.385" cy="35.6026" r="2.69442" fill="#605F5F"/>
<circle cx="140.385" cy="49.9718" r="2.69442" fill="#605F5F"/>
<circle cx="140.385" cy="64.9415" r="2.69442" fill="#605F5F"/>
<circle cx="140.385" cy="79.3116" r="2.69442" fill="#605F5F"/>
<circle cx="140.385" cy="93.6817" r="2.69442" fill="#605F5F"/>
<circle cx="140.385" cy="108.651" r="2.69442" fill="#605F5F"/>
<circle cx="140.385" cy="123.022" r="2.69442" fill="#605F5F"/>
<circle cx="140.385" cy="137.392" r="2.69442" fill="#605F5F"/>
<circle cx="140.385" cy="152.361" r="2.69442" fill="#605F5F"/>
<circle cx="140.385" cy="166.731" r="2.69442" fill="#605F5F"/>
<circle cx="150.566" cy="6.26278" r="2.69442" fill="#605F5F"/>
<circle cx="150.566" cy="21.2315" r="2.69442" fill="#605F5F"/>
<circle cx="150.566" cy="35.6026" r="2.69442" fill="#605F5F"/>
<circle cx="150.566" cy="49.9718" r="2.69442" fill="#605F5F"/>
<circle cx="150.566" cy="64.9415" r="2.69442" fill="#605F5F"/>
<circle cx="150.566" cy="79.3116" r="2.69442" fill="#605F5F"/>
<circle cx="150.566" cy="93.6817" r="2.69442" fill="#605F5F"/>
<circle cx="150.566" cy="108.651" r="2.69442" fill="#605F5F"/>
<circle cx="150.566" cy="123.022" r="2.69442" fill="#605F5F"/>
<circle cx="150.566" cy="137.392" r="2.69442" fill="#605F5F"/>
<circle cx="150.566" cy="152.361" r="2.69442" fill="#605F5F"/>
<circle cx="150.566" cy="166.731" r="2.69442" fill="#605F5F"/>
<circle cx="161.343" cy="6.26278" r="2.69442" fill="#605F5F"/>
<circle cx="161.343" cy="21.2315" r="2.69442" fill="#605F5F"/>
<circle cx="161.343" cy="35.6026" r="2.69442" fill="#605F5F"/>
<circle cx="161.343" cy="49.9718" r="2.69442" fill="#605F5F"/>
<circle cx="161.343" cy="64.9415" r="2.69442" fill="#605F5F"/>
<circle cx="161.343" cy="79.3116" r="2.69442" fill="#605F5F"/>
<circle cx="161.343" cy="93.6817" r="2.69442" fill="#605F5F"/>
<circle cx="161.343" cy="108.651" r="2.69442" fill="#605F5F"/>
<circle cx="161.343" cy="123.022" r="2.69442" fill="#605F5F"/>
<circle cx="161.343" cy="137.392" r="2.69442" fill="#605F5F"/>
<circle cx="161.343" cy="152.361" r="2.69442" fill="#605F5F"/>
<circle cx="161.343" cy="166.731" r="2.69442" fill="#605F5F"/>
<circle cx="171.52" cy="6.26278" r="2.69442" fill="#605F5F"/>
<circle cx="171.52" cy="21.2315" r="2.69442" fill="#605F5F"/>
<circle cx="171.521" cy="35.6016" r="2.69442" fill="#605F5F"/>
<circle cx="171.521" cy="49.9727" r="2.69442" fill="#605F5F"/>
<circle cx="171.52" cy="64.9415" r="2.69442" fill="#605F5F"/>
<circle cx="171.521" cy="79.3116" r="2.69442" fill="#605F5F"/>
<circle cx="171.52" cy="93.682" r="2.69442" fill="#605F5F"/>
<circle cx="171.52" cy="108.651" r="2.69442" fill="#605F5F"/>
<circle cx="171.52" cy="123.022" r="2.69442" fill="#605F5F"/>
<circle cx="171.521" cy="137.392" r="2.69442" fill="#605F5F"/>
<circle cx="171.52" cy="152.361" r="2.69442" fill="#605F5F"/>
<circle cx="171.52" cy="166.731" r="2.69442" fill="#605F5F"/>
</g>
</svg>
