<svg width="68" height="68" viewBox="0 0 68 68" fill="none" xmlns="http://www.w3.org/2000/svg">
<circle cx="34" cy="34" r="34" fill="#24272E"/>
<path d="M29.5003 29.3332H23.5003C23.1467 29.3332 22.8076 29.1927 22.5575 28.9426C22.3075 28.6926 22.167 28.3535 22.167 27.9998V21.9998C22.167 21.6462 22.3075 21.3071 22.5575 21.057C22.8076 20.807 23.1467 20.6665 23.5003 20.6665C23.8539 20.6665 24.1931 20.807 24.4431 21.057C24.6932 21.3071 24.8337 21.6462 24.8337 21.9998V26.6665H29.5003C29.8539 26.6665 30.1931 26.807 30.4431 27.057C30.6932 27.3071 30.8337 27.6462 30.8337 27.9998C30.8337 28.3535 30.6932 28.6926 30.4431 28.9426C30.1931 29.1927 29.8539 29.3332 29.5003 29.3332Z" fill="#F0E714"/>
<path d="M46 35.3333C45.6464 35.3333 45.3073 35.1928 45.0572 34.9428C44.8072 34.6927 44.6667 34.3536 44.6667 34C44.6677 31.6527 43.8939 29.3707 42.4655 27.5081C41.037 25.6455 39.0337 24.3065 36.7665 23.6988C34.4992 23.0911 32.0948 23.2487 29.9263 24.1472C27.7577 25.0457 25.9464 26.6348 24.7733 28.668C24.5962 28.974 24.3047 29.1972 23.963 29.2883C23.6213 29.3795 23.2574 29.3311 22.9513 29.154C22.6453 28.9768 22.4221 28.6853 22.331 28.3436C22.2399 28.0019 22.2882 27.638 22.4653 27.332C23.9324 24.791 26.1969 22.8051 28.9078 21.6825C31.6186 20.5599 34.6241 20.3633 37.4581 21.1232C40.2921 21.883 42.7961 23.557 44.5816 25.8852C46.3672 28.2135 47.3344 31.0659 47.3333 34C47.3333 34.3536 47.1929 34.6927 46.9428 34.9428C46.6928 35.1928 46.3536 35.3333 46 35.3333ZM44.5 47.3333C44.1464 47.3333 43.8073 47.1928 43.5572 46.9428C43.3072 46.6927 43.1667 46.3536 43.1667 46V41.3333H38.5C38.1464 41.3333 37.8073 41.1928 37.5572 40.9428C37.3072 40.6927 37.1667 40.3536 37.1667 40C37.1667 39.6464 37.3072 39.3072 37.5572 39.0572C37.8073 38.8071 38.1464 38.6666 38.5 38.6666H44.5C44.8536 38.6666 45.1928 38.8071 45.4428 39.0572C45.6929 39.3072 45.8333 39.6464 45.8333 40V46C45.8333 46.3536 45.6929 46.6927 45.4428 46.9428C45.1928 47.1928 44.8536 47.3333 44.5 47.3333Z" fill="#F0E714"/>
<path d="M34.0003 47.3332C30.4654 47.3289 27.0765 45.9228 24.5769 43.4233C22.0773 40.9237 20.6712 37.5348 20.667 33.9998C20.667 33.6462 20.8075 33.3071 21.0575 33.057C21.3076 32.807 21.6467 32.6665 22.0003 32.6665C22.3539 32.6665 22.6931 32.807 22.9431 33.057C23.1932 33.3071 23.3337 33.6462 23.3337 33.9998C23.3326 36.3471 24.1064 38.6291 25.5349 40.4917C26.9633 42.3543 28.9666 43.6933 31.2339 44.301C33.5011 44.9087 35.9056 44.7511 38.0741 43.8526C40.2426 42.9541 42.0539 41.365 43.227 39.3318C43.3147 39.1803 43.4314 39.0475 43.5705 38.9411C43.7095 38.8346 43.8682 38.7566 44.0373 38.7115C44.2065 38.6664 44.3829 38.655 44.5565 38.678C44.7301 38.7011 44.8974 38.7581 45.049 38.8458C45.2005 38.9336 45.3333 39.0503 45.4398 39.1893C45.5462 39.3284 45.6242 39.487 45.6693 39.6562C45.7145 39.8254 45.7258 40.0018 45.7028 40.1754C45.6797 40.349 45.6227 40.5163 45.535 40.6678C44.3623 42.6898 42.6803 44.3692 40.6565 45.5387C38.6327 46.7081 36.3377 47.3268 34.0003 47.3332Z" fill="#F0E714"/>
</svg>
