<svg width="58" height="58" viewBox="0 0 58 58" fill="none" xmlns="http://www.w3.org/2000/svg">
<rect width="58" height="58" rx="29" fill="#24272E"/>
<path fill-rule="evenodd" clip-rule="evenodd" d="M28.5373 11.032C28.3889 11.0654 28.1807 11.1286 28.0747 11.1724C27.9687 11.2163 24.759 13.0096 20.9422 15.1576C16.0708 17.8991 13.9061 19.1574 13.6792 19.3797C13.5014 19.5538 13.2759 19.8733 13.178 20.0895L13 20.4827V28.6947V36.9068L13.2083 37.3309C13.3229 37.5641 13.5484 37.8835 13.7095 38.0406C13.895 38.2214 16.571 39.7712 21.0049 42.2657C26.3515 45.2736 28.1248 46.236 28.5037 46.3354C29.3831 46.566 29.2177 46.6451 36.9633 42.2886C41.1447 39.9368 44.0506 38.2562 44.2467 38.0762C44.426 37.9115 44.6689 37.581 44.7864 37.3418L45 36.9068V28.6947V20.4827L44.8182 20.0806C44.7182 19.8596 44.4754 19.5288 44.2784 19.3457C44.0328 19.1172 41.743 17.7904 36.9807 15.1169C33.1639 12.9742 29.9508 11.1827 29.8407 11.136C29.558 11.0159 28.8567 10.96 28.5373 11.032ZM35.0771 16.8692C38.3718 18.7198 41.1083 20.2726 41.1581 20.3198C41.2259 20.3838 39.734 21.2655 35.2719 23.7983C31.9846 25.6644 29.2449 27.2025 29.1838 27.2165C29.0524 27.2465 16.8061 20.4376 16.8354 20.3509C16.8627 20.2699 28.8587 13.5149 28.9855 13.5091C29.0412 13.5064 31.7824 15.0185 35.0771 16.8692ZM22.1759 26.2249C25.3142 27.9735 27.8871 29.4094 27.8934 29.4157C27.9236 29.446 27.7719 43.134 27.7411 43.1649C27.7215 43.1844 24.9433 41.6467 21.5673 39.7478L15.4289 36.2951V29.3759V22.4567L15.9494 22.7511C16.2357 22.9131 19.0376 24.4762 22.1759 26.2249ZM42.5711 29.4128V36.2994L36.4345 39.7516C33.0593 41.6503 30.2856 43.1915 30.2705 43.1765C30.2236 43.1297 30.3696 29.4584 30.4176 29.4105C30.4889 29.3391 42.4485 22.5375 42.5133 22.5314C42.5451 22.5285 42.5711 25.625 42.5711 29.4128Z" fill="#F0E714"/>
</svg>
