<svg width="68" height="68" viewBox="0 0 68 68" fill="none" xmlns="http://www.w3.org/2000/svg">
<circle cx="34" cy="34" r="34" fill="#24272E"/>
<path d="M43.7563 39.8719C42.9741 39.0891 42.0601 38.4501 41.0563 37.9844C42.4719 36.8375 43.375 35.0875 43.375 33.125C43.375 29.6625 40.4875 26.8219 37.025 26.875C33.6156 26.9281 30.8688 29.7063 30.8688 33.125C30.8688 35.0875 31.775 36.8375 33.1875 37.9844C32.1835 38.4498 31.2695 39.0888 30.4875 39.8719C28.7813 41.5813 27.8125 43.8375 27.75 46.2437C27.7492 46.2771 27.755 46.3103 27.7672 46.3413C27.7794 46.3724 27.7977 46.4007 27.821 46.4246C27.8443 46.4485 27.8721 46.4674 27.9029 46.4804C27.9336 46.4933 27.9667 46.5 28 46.5H29.75C29.8844 46.5 29.9969 46.3937 30 46.2594C30.0594 44.4469 30.7938 42.75 32.0844 41.4625C32.7448 40.7986 33.5304 40.2722 34.3956 39.9139C35.2608 39.5555 36.1885 39.3724 37.125 39.375C39.0281 39.375 40.8188 40.1156 42.1656 41.4625C43.4531 42.75 44.1875 44.4469 44.25 46.2594C44.2531 46.3937 44.3656 46.5 44.5 46.5H46.25C46.2834 46.5 46.3164 46.4933 46.3472 46.4804C46.3779 46.4674 46.4057 46.4485 46.429 46.4246C46.4523 46.4007 46.4706 46.3724 46.4828 46.3413C46.495 46.3103 46.5009 46.2771 46.5 46.2437C46.4375 43.8375 45.4688 41.5813 43.7563 39.8719ZM37.125 37.125C36.0563 37.125 35.05 36.7094 34.2969 35.9531C33.9189 35.5781 33.6204 35.1309 33.419 34.638C33.2177 34.1451 33.1177 33.6167 33.125 33.0844C33.1344 32.0594 33.5438 31.0688 34.2594 30.3344C35.0094 29.5656 36.0125 29.1375 37.0844 29.125C38.1438 29.1156 39.1719 29.5281 39.9281 30.2688C40.7031 31.0281 41.1281 32.0438 41.1281 33.125C41.1281 34.1938 40.7125 35.1969 39.9563 35.9531C39.5852 36.3259 39.144 36.6214 38.658 36.8226C38.172 37.0237 37.651 37.1265 37.125 37.125ZM29.2969 33.95C29.2688 33.6781 29.2531 33.4031 29.2531 33.125C29.2531 32.6281 29.3 32.1438 29.3875 31.6719C29.4094 31.5594 29.35 31.4438 29.2469 31.3969C28.8219 31.2063 28.4313 30.9438 28.0938 30.6125C27.6961 30.2269 27.3831 29.7626 27.1749 29.2493C26.9667 28.736 26.8677 28.1849 26.8844 27.6313C26.9125 26.6281 27.3156 25.675 28.0188 24.9563C28.7906 24.1656 29.8281 23.7344 30.9313 23.7469C31.9281 23.7563 32.8906 24.1406 33.6188 24.8219C33.8656 25.0531 34.0781 25.3094 34.2563 25.5844C34.3188 25.6813 34.4406 25.7219 34.5469 25.6844C35.0969 25.4938 35.6781 25.3594 36.275 25.2969C36.45 25.2781 36.55 25.0906 36.4719 24.9344C35.4563 22.925 33.3813 21.5375 30.9813 21.5C27.5156 21.4469 24.6281 24.2875 24.6281 27.7469C24.6281 29.7094 25.5313 31.4594 26.9469 32.6063C25.9531 33.0656 25.0375 33.7 24.2438 34.4938C22.5313 36.2031 21.5625 38.4594 21.5 40.8687C21.4992 40.9021 21.505 40.9353 21.5172 40.9663C21.5294 40.9974 21.5477 41.0257 21.571 41.0496C21.5943 41.0735 21.6221 41.0924 21.6529 41.1054C21.6836 41.1183 21.7167 41.125 21.75 41.125H23.5031C23.6375 41.125 23.75 41.0187 23.7531 40.8844C23.8125 39.0719 24.5469 37.375 25.8375 36.0875C26.7563 35.1688 27.8813 34.5312 29.1094 34.2219C29.2313 34.1906 29.3125 34.075 29.2969 33.95Z" fill="#F0E714"/>
</svg>
