<svg width="58" height="58" viewBox="0 0 58 58" fill="none" xmlns="http://www.w3.org/2000/svg">
<rect width="58" height="58" rx="29" fill="#24272E"/>
<path fill-rule="evenodd" clip-rule="evenodd" d="M27.3464 13.0838C20.9742 13.7464 15.5129 18.2647 13.6816 24.3892C10.7926 34.0513 17.4091 43.9237 27.4507 44.9341C32.7113 45.4635 38.0164 43.2574 41.3792 39.142C46.2069 33.2338 46.2069 24.7798 41.3792 18.8716C38 14.7362 32.6552 12.5317 27.3464 13.0838ZM29.7817 16.0833C31.041 16.7258 32.3015 18.9355 33.0492 21.8111C33.1922 22.3614 33.3096 22.8203 33.31 22.8308C33.3104 22.8414 31.3706 22.8501 28.9995 22.8501H24.6883L24.7357 22.6384C25.1741 20.6796 25.9385 18.7287 26.7181 17.5783C27.748 16.0586 28.7627 15.5635 29.7817 16.0833ZM24.2928 16.8171C23.555 18.0707 22.9983 19.5226 22.4961 21.5033L22.1643 22.8116L19.5449 22.8318L16.9256 22.8521L17.1767 22.4085C18.5227 20.0301 20.5212 18.1291 22.9765 16.8917C23.5142 16.6207 24.4605 16.2104 24.6678 16.1584C24.676 16.1563 24.5073 16.4527 24.2928 16.8171ZM34.7769 16.752C36.8339 17.686 38.9512 19.5241 40.2941 21.5417C40.6497 22.0761 41.0066 22.7106 41.0066 22.8085C41.0066 22.8314 39.8292 22.8501 38.39 22.8501C35.9202 22.8501 35.7734 22.8423 35.7734 22.7113C35.7734 22.635 35.6544 22.0896 35.5091 21.4992C35.0625 19.6863 34.4315 18.0444 33.7108 16.8199L33.3226 16.1604L33.7977 16.3418C34.0589 16.4415 34.4996 16.6262 34.7769 16.752ZM21.7417 25.8707C21.6474 26.5951 21.6474 31.4185 21.7417 32.1429L21.8144 32.7008H18.9027H15.991L15.9161 32.5036C15.5819 31.6247 15.3763 29.0617 15.5276 27.66C15.6153 26.847 15.8626 25.5415 15.9582 25.3869C15.9862 25.3415 17.1292 25.3128 18.9092 25.3128H21.8144L21.7417 25.8707ZM33.7307 25.4859C33.8093 25.8435 33.9264 27.9602 33.9262 29.0212C33.926 30.0824 33.8211 31.9326 33.7317 32.4507L33.6885 32.7008H28.999H24.3094L24.2713 32.5277C24.1923 32.1687 24.0756 30.0518 24.0764 28.9924C24.0771 27.9084 24.192 25.8248 24.2697 25.4859L24.3094 25.3128H29.001H33.6926L33.7307 25.4859ZM42.1416 25.736C42.428 26.8826 42.499 27.5329 42.499 29.0068C42.499 30.4807 42.428 31.131 42.1416 32.2776L42.0456 32.6624L39.1165 32.6825L36.1874 32.7026L36.2602 32.1438C36.3546 31.4182 36.3546 26.5954 36.2602 25.8698L36.1874 25.311L39.1165 25.3311L42.0456 25.3512L42.1416 25.736ZM22.4961 36.5103C22.9975 38.4876 23.5551 39.9431 24.2891 41.1901L24.6751 41.846L24.1637 41.6539C21.3089 40.5812 18.7288 38.3475 17.1767 35.6051L16.9256 35.1615L19.5449 35.1818L22.1643 35.202L22.4961 36.5103ZM33.2826 35.2982C33.2615 35.3723 33.1352 35.8485 33.002 36.3564C32.2717 39.1416 31.0298 41.2834 29.7623 41.9439C29.3048 42.1822 28.6972 42.1822 28.2397 41.9439C26.9625 41.2784 25.6591 39.005 24.9541 36.2127C24.8458 35.7838 24.74 35.3723 24.719 35.2982C24.683 35.1711 24.9234 35.1635 29.001 35.1635C33.0787 35.1635 33.3189 35.1711 33.2826 35.2982ZM41.0066 35.2051C41.0066 35.303 40.6497 35.9375 40.2941 36.4719C38.7319 38.819 36.3836 40.6994 33.7977 41.6741L33.3226 41.8532L33.7108 41.1937C34.4315 39.9692 35.0625 38.3273 35.5091 36.5144C35.6544 35.924 35.7734 35.3786 35.7734 35.3023C35.7734 35.1713 35.9202 35.1635 38.39 35.1635C39.8292 35.1635 41.0066 35.1822 41.0066 35.2051Z" fill="#F0E714"/>
</svg>
