<svg width="25" height="17" viewBox="0 0 25 17" fill="none" xmlns="http://www.w3.org/2000/svg">
<path fill-rule="evenodd" clip-rule="evenodd" d="M0.32724 8.33499C0.32724 8.10768 0.41754 7.88968 0.578275 7.72894C0.73901 7.56821 0.957014 7.4779 1.18433 7.4779H21.3996L16.0051 2.08511C15.8442 1.92417 15.7537 1.70589 15.7537 1.47829C15.7537 1.25069 15.8442 1.03241 16.0051 0.871469C16.166 0.710531 16.3843 0.620117 16.6119 0.620117C16.8395 0.620117 17.0578 0.710531 17.2187 0.871469L24.0754 7.72817C24.1553 7.80779 24.2186 7.90237 24.2618 8.0065C24.305 8.11063 24.3272 8.22226 24.3272 8.33499C24.3272 8.44773 24.305 8.55936 24.2618 8.66349C24.2186 8.76761 24.1553 8.8622 24.0754 8.94181L17.2187 15.7985C17.0578 15.9595 16.8395 16.0499 16.6119 16.0499C16.3843 16.0499 16.166 15.9595 16.0051 15.7985C15.8442 15.6376 15.7537 15.4193 15.7537 15.1917C15.7537 14.9641 15.8442 14.7458 16.0051 14.5849L21.3996 9.19208H1.18433C0.957014 9.19208 0.73901 9.10178 0.578275 8.94105C0.41754 8.78031 0.32724 8.56231 0.32724 8.33499Z" fill="#24272E"/>
</svg>
