<svg width="80" height="16" viewBox="0 0 80 16" fill="none" xmlns="http://www.w3.org/2000/svg">
<path d="M7.5192 1.68474C7.65724 1.20103 8.34276 1.20103 8.4808 1.68474L9.39502 4.88819C9.46908 5.14767 9.73566 5.30158 9.9974 5.23597L13.2288 4.42598C13.7167 4.30368 14.0595 4.89735 13.7096 5.25876L11.3924 7.65222C11.2047 7.84609 11.2047 8.15391 11.3924 8.34778L13.7096 10.7412C14.0595 11.1026 13.7167 11.6963 13.2288 11.574L9.9974 10.764C9.73566 10.6984 9.46908 10.8523 9.39502 11.1118L8.4808 14.3153C8.34276 14.799 7.65724 14.799 7.5192 14.3153L6.60498 11.1118C6.53092 10.8523 6.26434 10.6984 6.0026 10.764L2.77123 11.574C2.2833 11.6963 1.94054 11.1026 2.29043 10.7412L4.60758 8.34778C4.79527 8.15391 4.79527 7.84609 4.60758 7.65222L2.29043 5.25876C1.94054 4.89735 2.2833 4.30368 2.77123 4.42598L6.0026 5.23597C6.26434 5.30158 6.53092 5.14766 6.60498 4.88819L7.5192 1.68474Z" fill="#F37825"/>
<path d="M23.5192 1.68474C23.6572 1.20103 24.3428 1.20103 24.4808 1.68474L25.395 4.88819C25.4691 5.14767 25.7357 5.30158 25.9974 5.23597L29.2288 4.42598C29.7167 4.30368 30.0595 4.89735 29.7096 5.25876L27.3924 7.65222C27.2047 7.84609 27.2047 8.15391 27.3924 8.34778L29.7096 10.7412C30.0595 11.1026 29.7167 11.6963 29.2288 11.574L25.9974 10.764C25.7357 10.6984 25.4691 10.8523 25.395 11.1118L24.4808 14.3153C24.3428 14.799 23.6572 14.799 23.5192 14.3153L22.605 11.1118C22.5309 10.8523 22.2643 10.6984 22.0026 10.764L18.7712 11.574C18.2833 11.6963 17.9405 11.1026 18.2904 10.7412L20.6076 8.34778C20.7953 8.15391 20.7953 7.84609 20.6076 7.65222L18.2904 5.25876C17.9405 4.89735 18.2833 4.30368 18.7712 4.42598L22.0026 5.23597C22.2643 5.30158 22.5309 5.14766 22.605 4.88819L23.5192 1.68474Z" fill="#F37825"/>
<path d="M39.5192 1.68474C39.6572 1.20103 40.3428 1.20103 40.4808 1.68474L41.395 4.88819C41.4691 5.14767 41.7357 5.30158 41.9974 5.23597L45.2288 4.42598C45.7167 4.30368 46.0595 4.89735 45.7096 5.25876L43.3924 7.65222C43.2047 7.84609 43.2047 8.15391 43.3924 8.34778L45.7096 10.7412C46.0595 11.1026 45.7167 11.6963 45.2288 11.574L41.9974 10.764C41.7357 10.6984 41.4691 10.8523 41.395 11.1118L40.4808 14.3153C40.3428 14.799 39.6572 14.799 39.5192 14.3153L38.605 11.1118C38.5309 10.8523 38.2643 10.6984 38.0026 10.764L34.7712 11.574C34.2833 11.6963 33.9405 11.1026 34.2904 10.7412L36.6076 8.34778C36.7953 8.15391 36.7953 7.84609 36.6076 7.65222L34.2904 5.25876C33.9405 4.89735 34.2833 4.30368 34.7712 4.42598L38.0026 5.23597C38.2643 5.30158 38.5309 5.14766 38.605 4.88819L39.5192 1.68474Z" fill="#F37825"/>
<path d="M55.5192 1.68474C55.6572 1.20103 56.3428 1.20103 56.4808 1.68474L57.395 4.88819C57.4691 5.14767 57.7357 5.30158 57.9974 5.23597L61.2288 4.42598C61.7167 4.30368 62.0595 4.89735 61.7096 5.25876L59.3924 7.65222C59.2047 7.84609 59.2047 8.15391 59.3924 8.34778L61.7096 10.7412C62.0595 11.1026 61.7167 11.6963 61.2288 11.574L57.9974 10.764C57.7357 10.6984 57.4691 10.8523 57.395 11.1118L56.4808 14.3153C56.3428 14.799 55.6572 14.799 55.5192 14.3153L54.605 11.1118C54.5309 10.8523 54.2643 10.6984 54.0026 10.764L50.7712 11.574C50.2833 11.6963 49.9405 11.1026 50.2904 10.7412L52.6076 8.34778C52.7953 8.15391 52.7953 7.84609 52.6076 7.65222L50.2904 5.25876C49.9405 4.89735 50.2833 4.30368 50.7712 4.42598L54.0026 5.23597C54.2643 5.30158 54.5309 5.14766 54.605 4.88819L55.5192 1.68474Z" fill="#F37825"/>
<path d="M71.5192 1.68474C71.6572 1.20103 72.3428 1.20103 72.4808 1.68474L73.395 4.88819C73.4691 5.14767 73.7357 5.30158 73.9974 5.23597L77.2288 4.42598C77.7167 4.30368 78.0595 4.89735 77.7096 5.25876L75.3924 7.65222C75.2047 7.84609 75.2047 8.15391 75.3924 8.34778L77.7096 10.7412C78.0595 11.1026 77.7167 11.6963 77.2288 11.574L73.9974 10.764C73.7357 10.6984 73.4691 10.8523 73.395 11.1118L72.4808 14.3153C72.3428 14.799 71.6572 14.799 71.5192 14.3153L70.605 11.1118C70.5309 10.8523 70.2643 10.6984 70.0026 10.764L66.7712 11.574C66.2833 11.6963 65.9405 11.1026 66.2904 10.7412L68.6076 8.34778C68.7953 8.15391 68.7953 7.84609 68.6076 7.65222L66.2904 5.25876C65.9405 4.89735 66.2833 4.30368 66.7712 4.42598L70.0026 5.23597C70.2643 5.30158 70.5309 5.14766 70.605 4.88819L71.5192 1.68474Z" fill="#F37825"/>
</svg>
